<svg xmlns="http://www.w3.org/2000/svg"  viewBox="0 0 48 48" width="48px" height="48px"><path d="M 24 5 C 15.194423 5 8 12.174611 8 22 C 8 26.216667 9.8476689 31.466453 12.675781 35.873047 C 15.503894 40.279641 19.383333 44 24 44 C 28.616667 44 32.496106 40.279641 35.324219 35.873047 C 38.152331 31.466453 40 26.216667 40 22 C 40 12.174611 32.805577 5 24 5 z M 24 8 C 27.360483 8 30.402149 9.2277216 32.703125 11.376953 C 32.101769 14.621057 30.299824 20.830716 26.667969 23.251953 A 1.50015 1.50015 0 0 0 26.015625 24.287109 C 26.015625 24.287109 25.695205 26.401099 26.607422 28.681641 C 27.431099 30.740833 29.441702 32.950825 33.087891 33.769531 C 32.990433 33.928808 32.901058 34.095708 32.800781 34.251953 C 30.253894 38.220359 26.883333 41 24 41 C 21.116667 41 17.746106 38.220359 15.199219 34.251953 C 15.098942 34.095708 15.009567 33.928808 14.912109 33.769531 C 18.558298 32.950825 20.568901 30.740833 21.392578 28.681641 C 22.304795 26.401099 21.984375 24.287109 21.984375 24.287109 A 1.50015 1.50015 0 0 0 21.244141 23.197266 C 16.94223 20.739395 15.519817 14.745731 15.146484 11.519531 C 17.46405 9.2814704 20.565806 8 24 8 z M 35.107422 14.447266 C 36.300997 16.560854 37 19.108638 37 22 C 37 24.429583 36.090363 27.798078 34.587891 30.994141 C 31.106111 30.531722 29.974508 29.023182 29.392578 27.568359 C 28.94029 26.437638 28.951462 25.555712 28.976562 25.117188 C 32.489184 22.351489 34.225705 17.877244 35.107422 14.447266 z M 12.675781 14.832031 C 13.466473 18.252335 15.200294 22.546195 19.023438 25.171875 C 19.045067 25.641682 19.041388 26.483442 18.607422 27.568359 C 18.025492 29.023182 16.893889 30.531722 13.412109 30.994141 C 11.909637 27.798078 11 24.429583 11 22 C 11 19.283876 11.612973 16.867905 12.675781 14.832031 z"/></svg>