<svg xmlns="http://www.w3.org/2000/svg"  viewBox="0 0 72 72" width="64px" height="64px"><path d="M 16 16 C 12.141 16 9 19.14 9 23 L 9 49 C 9 52.86 12.141 56 16 56 L 56 56 C 59.859 56 63 52.86 63 49 L 63 23 C 63 19.14 59.859 16 56 16 L 16 16 z M 18 24 L 54 24 C 54.552 24 55 24.448 55 25 L 55 32 L 17 32 L 17 25 C 17 24.448 17.448 24 18 24 z M 17 38 L 20 38 L 20 43 C 20 44.105 20.895 45 22 45 C 23.105 45 24 44.105 24 43 L 24 38 L 26 38 L 26 43 C 26 44.105 26.895 45 28 45 C 29.105 45 30 44.105 30 43 L 30 38 L 36 38 L 36 43 C 36 44.105 36.895 45 38 45 C 39.105 45 40 44.105 40 43 L 40 38 L 42 38 L 42 43 C 42 44.105 42.895 45 44 45 C 45.105 45 46 44.105 46 43 L 46 38 L 48 38 L 48 43 C 48 44.105 48.895 45 50 45 C 51.105 45 52 44.105 52 43 L 52 38 L 55 38 L 55 47 C 55 47.552 54.552 48 54 48 L 18 48 C 17.448 48 17 47.552 17 47 L 17 38 z"/></svg>