<svg xmlns="http://www.w3.org/2000/svg"  viewBox="0 0 48 48" width="48px" height="48px"><path d="M 26.927734 6.8339844 C 25.772871 6.8339844 24.618526 7.2701456 23.746094 8.1425781 L 20.269531 11.621094 C 19.619344 11.363129 18.859851 11.077834 18.294922 10.845703 C 17.347923 10.456373 16.324124 10.411026 15.380859 10.666016 C 14.437595 10.921005 13.576226 11.476412 12.955078 12.292969 A 1.50015 1.50015 0 0 0 12.953125 12.294922 C 12.464028 12.93809 11.959006 13.639687 11.460938 14.376953 A 1.50015 1.50015 0 1 0 13.945312 16.056641 C 14.409244 15.369907 14.884894 14.710207 15.341797 14.109375 C 15.771502 13.544488 16.494294 13.349754 17.154297 13.621094 C 20.756823 15.101383 26.171645 17.12148 28.199219 17.875 C 28.177429 18.07689 28.179619 18.278059 28.076172 18.476562 C 27.916 18.783915 27.661718 19.105073 26.916016 19.402344 C 26.573559 19.538418 26.16394 19.60262 25.699219 19.587891 A 1.50015 1.50015 0 0 0 25.697266 19.587891 C 24.468252 19.550183 21.734509 19.177994 20.001953 18.9375 A 1.50015 1.50015 0 0 0 18.453125 21.091797 C 20.019175 24.237421 19.666317 26.346101 19.042969 27.800781 C 18.419621 29.255461 17.525391 29.935547 17.525391 29.935547 A 1.5005202 1.5005202 0 1 0 19.357422 32.3125 C 19.357422 32.3125 20.879129 31.133242 21.800781 28.982422 C 22.519102 27.306107 22.836141 24.952607 22.054688 22.1875 C 23.328277 22.352373 24.636036 22.558187 25.605469 22.587891 C 26.401444 22.612911 27.230755 22.506691 28.027344 22.189453 C 29.348641 21.662724 30.2585 20.778226 30.736328 19.861328 C 30.955985 19.439832 31.083478 19.027558 31.162109 18.640625 A 1.50015 1.50015 0 0 0 33.714844 19.386719 L 35.060547 18.042969 C 35.659682 17.443834 36.582506 17.443834 37.181641 18.042969 C 37.780776 18.642104 37.780776 19.564928 37.181641 20.164062 L 35.767578 21.578125 L 32.230469 25.113281 L 32.230469 25.115234 C 32.229147 25.116557 32.227882 25.117817 32.226562 25.119141 C 31.627507 25.711543 30.706267 25.709711 30.109375 25.113281 C 29.940129 24.943662 29.824301 24.751025 29.751953 24.541016 A 1.5009261 1.5009261 0 1 0 26.914062 25.519531 C 27.129538 26.145006 27.490207 26.738254 27.988281 27.236328 C 28.80346 28.05081 29.865875 28.46988 30.943359 28.523438 C 30.997448 29.600351 31.416454 30.661934 32.230469 31.476562 C 33.97488 33.222464 36.850536 33.223636 38.595703 31.478516 L 42.130859 27.941406 C 43.875724 26.196541 43.875724 23.32299 42.130859 21.578125 C 41.622253 21.069518 41.013616 20.727711 40.369141 20.515625 C 40.880917 18.950886 40.536932 17.156073 39.302734 15.921875 C 38.645124 15.264264 37.814622 14.935363 36.957031 14.773438 C 37.145145 13.419075 36.79911 12.004188 35.767578 10.972656 C 34.895146 10.100224 33.738848 9.6640625 32.583984 9.6640625 C 32.106348 9.6640625 31.633333 9.757028 31.175781 9.90625 C 30.963765 9.2607838 30.620449 8.6516993 30.111328 8.1425781 C 29.238896 7.2701456 28.082598 6.8339844 26.927734 6.8339844 z M 26.927734 9.8164062 C 27.308712 9.8164062 27.690667 9.9660576 27.990234 10.265625 C 28.585676 10.861067 28.588101 11.775617 28 12.375 C 27.996352 12.378718 27.993927 12.383026 27.990234 12.386719 L 26.576172 13.800781 L 26.574219 13.800781 A 1.50015 1.50015 0 0 0 26.404297 14 C 25.339082 13.59849 24.560474 13.295052 23.316406 12.816406 L 25.867188 10.265625 C 26.166754 9.9660576 26.546757 9.8164062 26.927734 9.8164062 z M 32.583984 12.644531 C 32.964474 12.644531 33.344964 12.794182 33.644531 13.09375 C 34.243666 13.692885 34.243666 14.615709 33.644531 15.214844 A 1.50015 1.50015 0 0 0 33.330078 15.662109 C 33.205617 15.762138 33.052754 15.806621 32.9375 15.921875 L 31.59375 17.265625 A 1.50015 1.50015 0 0 0 31.259766 17.744141 C 31.261718 17.637186 31.267379 17.525355 31.263672 17.429688 C 31.224772 16.415643 30.552113 15.554351 29.646484 15.21875 C 29.614162 15.206754 29.503646 15.163353 29.46875 15.150391 L 30.111328 14.507812 C 30.114337 14.504804 30.116142 14.501062 30.119141 14.498047 L 31.523438 13.09375 C 31.823005 12.794182 32.203495 12.644531 32.583984 12.644531 z M 10.3125 17.876953 A 1.50015 1.50015 0 0 0 8.90625 18.751953 C 8.1974963 20.242263 7.668479 21.680292 7.6289062 23.117188 C 7.5856252 24.671693 7.9132395 26.201546 8.4804688 27.650391 L 7.4824219 28.648438 C 5.7375568 30.393303 5.7375568 33.268807 7.4824219 35.013672 L 14.552734 42.083984 C 16.297599 43.828849 19.173104 43.828849 20.917969 42.083984 L 22.052734 40.949219 C 23.651734 41.240566 25.247223 41.278073 26.654297 41.042969 C 28.333819 40.762342 29.739964 40.293756 30.761719 39.3125 A 1.50015 1.50015 0 0 0 30.783203 39.291016 L 34.271484 35.802734 A 1.50015 1.50015 0 1 0 32.150391 33.681641 L 28.683594 37.148438 C 28.494348 37.330182 27.451681 37.867861 26.158203 38.083984 C 24.864726 38.300108 23.305854 38.290957 21.898438 37.917969 A 1.50015 1.50015 0 0 0 20.453125 38.306641 L 18.796875 39.962891 C 18.19774 40.562026 17.272963 40.562026 16.673828 39.962891 L 9.6035156 32.892578 C 9.0043807 32.293443 9.0043807 31.370619 9.6035156 30.771484 L 11.265625 29.109375 A 1.50015 1.50015 0 0 0 11.527344 27.341797 C 10.884307 26.138458 10.587121 24.70197 10.628906 23.201172 C 10.647336 22.532067 10.999988 21.334706 11.615234 20.041016 A 1.50015 1.50015 0 0 0 10.3125 17.876953 z M 38.949219 23.25 C 39.329855 23.25 39.710198 23.399651 40.009766 23.699219 C 40.608901 24.298354 40.608901 25.221178 40.009766 25.820312 L 36.474609 29.355469 C 35.875776 29.954302 34.951104 29.955474 34.353516 29.357422 A 1.50015 1.50015 0 0 0 34.353516 29.355469 C 33.755046 28.757 33.754423 27.835515 34.351562 27.236328 C 34.352227 27.235662 34.35285 27.235041 34.353516 27.234375 L 37.888672 23.699219 C 37.889702 23.698189 37.891546 23.698292 37.892578 23.697266 C 38.191668 23.399755 38.569891 23.25 38.949219 23.25 z"/></svg>