<svg xmlns="http://www.w3.org/2000/svg"  viewBox="0 0 48 48" width="144px" height="144px" baseProfile="basic"><linearGradient id="BVBFGW-RyOjhDlUCtY8nIa" x1="18.058" x2="39.715" y1="37.505" y2="37.505" gradientUnits="userSpaceOnUse"><stop offset="0" stop-color="#0f78d4"/><stop offset="1" stop-color="#0f78d4"/></linearGradient><path fill="url(#BVBFGW-RyOjhDlUCtY8nIa)" d="M39.715,32.01H23.99c-3.803,0-5.933,2.662-5.933,5.495c0,2.615,1.806,5.495,5.933,5.495	h15.725V32.01z"/><linearGradient id="BVBFGW-RyOjhDlUCtY8nIb" x1="34" x2="45" y1="37.505" y2="37.505" gradientUnits="userSpaceOnUse"><stop offset="0" stop-color="#0358a7"/><stop offset=".964" stop-color="#0358a7"/></linearGradient><ellipse cx="39.5" cy="37.505" fill="url(#BVBFGW-RyOjhDlUCtY8nIb)" rx="5.5" ry="5.495"/><linearGradient id="BVBFGW-RyOjhDlUCtY8nIc" x1="1.875" x2="23.552" y1="23.5" y2="23.5" gradientUnits="userSpaceOnUse"><stop offset="0" stop-color="#0f78d4"/><stop offset="1" stop-color="#0f78d4"/></linearGradient><path fill="url(#BVBFGW-RyOjhDlUCtY8nIc)" d="M23.551,18H7.813c-3.806,0-5.938,2.664-5.938,5.5c0,2.617,1.808,5.5,5.938,5.5h15.739V18z"/><linearGradient id="BVBFGW-RyOjhDlUCtY8nId" x1="18" x2="29" y1="23.5" y2="23.5" gradientUnits="userSpaceOnUse"><stop offset="0" stop-color="#0358a7"/><stop offset=".964" stop-color="#0358a7"/></linearGradient><circle cx="23.5" cy="23.5" r="5.5" fill="url(#BVBFGW-RyOjhDlUCtY8nId)"/><linearGradient id="BVBFGW-RyOjhDlUCtY8nIe" x1="18.034" x2="39.711" y1="9.5" y2="9.5" gradientUnits="userSpaceOnUse"><stop offset="0" stop-color="#0f78d4"/><stop offset="1" stop-color="#0f78d4"/></linearGradient><path fill="url(#BVBFGW-RyOjhDlUCtY8nIe)" d="M39.711,4H23.972c-3.806,0-5.938,2.664-5.938,5.5c0,2.617,1.808,5.5,5.938,5.5h15.739V4z"/><linearGradient id="BVBFGW-RyOjhDlUCtY8nIf" x1="34" x2="45" y1="9.5" y2="9.5" gradientUnits="userSpaceOnUse"><stop offset="0" stop-color="#0358a7"/><stop offset=".964" stop-color="#0358a7"/></linearGradient><circle cx="39.5" cy="9.5" r="5.5" fill="url(#BVBFGW-RyOjhDlUCtY8nIf)"/></svg>