<svg xmlns="http://www.w3.org/2000/svg"  viewBox="0 0 24 24" width="48px" height="48px"><path d="M10.216 6h4.826c-.64-.84-1.036-1.876-1.036-3.011 0-1.125.387-2.153 1.017-2.989h-4.807C8.131 0 6.963 1.453 6.963 3 6.963 4.427 7.954 6 10.216 6zM19.003 5.986C20.658 5.986 22 4.644 22 2.989c0-1.655-1.342-2.997-2.997-2.997s-2.997 1.342-2.997 2.997C16.006 4.644 17.348 5.986 19.003 5.986zM8.631 11.997c0-1.129.39-2.16 1.024-2.997H5.29c-2.085 0-3.252 1.453-3.252 3 0 1.427.99 3 3.252 3h4.37C9.023 14.161 8.631 13.129 8.631 11.997zM13.628 9c-1.655 0-2.997 1.342-2.997 2.997 0 1.655 1.342 2.997 2.997 2.997s2.997-1.342 2.997-2.997C16.625 10.342 15.283 9 13.628 9zM10.252 18.007c-2.085 0-3.252 1.453-3.252 3 0 1.427.99 3 3.252 3h4.763c-.625-.834-1.01-1.859-1.01-2.979 0-1.14.398-2.179 1.043-3.021H10.252zM19.003 18.03c-1.655 0-2.997 1.342-2.997 2.997 0 1.655 1.342 2.997 2.997 2.997S22 22.682 22 21.027C22 19.372 20.658 18.03 19.003 18.03z"/></svg>